<svg xmlns="http://www.w3.org/2000/svg" viewBox="0 0 500 500">
  <defs>
    <linearGradient id="leftGrad" x1="0%" y1="0%" x2="100%" y2="100%">
      <stop offset="0%" stop-color="#c086ff"/>
      <stop offset="50%" stop-color="#ff77b4"/>
      <stop offset="100%" stop-color="#6db8ff"/>
    </linearGradient>
    <linearGradient id="rightGrad" x1="0%" y1="0%" x2="100%" y2="100%">
      <stop offset="0%" stop-color="#ff77b4"/>
      <stop offset="40%" stop-color="#c086ff"/>
      <stop offset="100%" stop-color="#44e4d9"/>
    </linearGradient>
  </defs>

  <!-- BAL OLDAL -->
  <path fill="url(#leftGrad)" d="M89.88 221.671c-11.101 0-20.129 9.035-20.129 20.134 0 8.773 5.725 16.549 14.064 19.194l1.296.411v71.993l-46.178-26.661V193.259l53.84-31.086a5.11 5.11 0 0 0 2.554-4.424V95.912l53.052-33.194 47.506 32.124.075 31.598-1.276.423c-8.21 2.721-13.804 10.427-13.804 19.101 0 11.1 9.029 20.129 20.129 20.129s20.129-9.029 20.129-20.129c0-8.635-5.547-16.313-13.702-19.071l-1.259-.426-.084-34.353a5.105 5.105 0 0 0-2.244-4.22L157.852 56.79l37.782-23.642 49.259 30.818v170.237l-98.795-55.674v-30.122l1.267-.425c8.182-2.742 13.754-10.43 13.754-19.086 0-11.097-9.032-20.129-20.129-20.129s-20.129 9.032-20.129 20.129c0 8.656 5.571 16.344 13.754 19.085l1.267.425v33.104c0 1.843.993 3.549 2.6 4.454l106.41 59.967V436.03l-49.259 30.824-44.669-27.954 27.768-28.916 1.187.521c13.255 5.815 28.191-3.954 28.191-18.437 0-8.659-5.569-16.349-13.754-19.092l-1.267-.424v-87.65a5.111 5.111 0 0 0-2.275-4.252l-30.182-20.102.386-1.312c3.785-12.865-5.894-25.811-19.308-25.811-11.097 0-20.128 9.032-20.128 20.129 0 16.47 18.926 25.994 32.135 16.146l1.05-.783 28.108 18.722v84.913l-1.267.424c-11.961 4.008-17.374 17.968-11.153 28.963l.681 1.203-29.018 30.223-46.792-29.281V261.228l1.238-.438c8.025-2.839 13.445-10.444 13.445-18.984 0-11.1-9.028-20.135-20.129-20.135z"/>

  <!-- JOBB OLDAL -->
  <path fill="url(#rightGrad)" d="m255.108 245.932 106.41-59.967a5.115 5.115 0 0 0 2.601-4.454v-33.104l1.267-.424c8.182-2.742 13.753-10.43 13.753-19.086 0-11.097-9.031-20.129-20.129-20.129-11.097 0-20.128 9.032-20.128 20.129 0 8.655 5.573 16.344 13.754 19.086l1.267.425v30.122l-98.795 55.674V63.966l49.257-30.818 37.784 23.642-45.996 31.103a5.107 5.107 0 0 0-2.247 4.22l-.082 34.353-1.259.426c-8.156 2.757-13.702 10.435-13.702 19.071 0 11.1 9.03 20.129 20.129 20.129 11.1 0 20.128-9.029 20.128-20.129 0-8.674-5.594-16.38-13.805-19.101l-1.276-.423.075-31.598 47.505-32.124 53.053 33.194v61.837c0 1.824.973 3.512 2.554 4.424l53.84 31.086v113.483l-46.178 26.661V261.41l1.296-.411c8.339-2.645 14.062-10.421 14.062-19.194 0-11.099-9.028-20.134-20.129-20.134-11.099 0-20.128 9.036-20.128 20.134 0 8.541 5.421 16.145 13.447 18.984l1.238.438v142.856l-46.791 29.281-29.018-30.222.681-1.204c6.22-10.996.807-24.955-11.154-28.963l-1.267-.425v-84.913l28.108-18.722 1.50.783c13.208 9.849 32.134.324 32.134-16.146 0-11.097-9.031-20.129-20.128-20.129-13.414 0-23.092 12.947-19.308 25.811l.386 1.312-30.182 20.102a5.114 5.114 0 0 0-2.278 4.252v87.65l-1.267.425c-8.184 2.743-13.753 10.434-13.753 19.092 0 14.483 14.939 24.251 28.194 18.437l1.187-.521 27.768 28.915-44.67 27.954-49.257-30.824V245.932z"/>

</svg>